<?xml version="1.0" encoding="utf-8"?>
<!-- Generator: Adobe Illustrator 26.0.1, SVG Export Plug-In . SVG Version: 6.00 Build 0)  -->
<svg version="1.1" id="Layer_1" xmlns="http://www.w3.org/2000/svg" xmlns:xlink="http://www.w3.org/1999/xlink" x="0px" y="0px"
	 viewBox="0 0 595.28 841.89" style="enable-background:new 0 0 595.28 841.89;" xml:space="preserve">
<style type="text/css">
	.st0{enable-background:new    ;}
	.st1{fill:#808080;}
	.st2{fill:#DDDDDD;}
	.st3{fill:#A1A1A1;}
	.st4{fill:#8E8E8E;}
</style>
<g>
	<g>
		<g class="st0">
			<g>
				<rect x="84.07" y="537.05" class="st1" width="25.23" height="0"/>
			</g>
			<g>
				<rect x="82.34" y="536.73" class="st1" width="27.26" height="0"/>
			</g>
			<g>
				<rect x="246.11" y="315.79" class="st1" width="25.23" height="0"/>
			</g>
			<g>
				<path class="st2" d="M272.28,457.99c5.2,8.68,7.84,19.54,7.84,32.29c0,12.76-2.56,23.95-7.6,33.26
					c-5.05,9.32-12.2,17.14-21.26,23.26c-9.04,6.12-20,10.76-32.57,13.81c-12.58,3.04-26.44,4.59-41.19,4.59
					c-21.25,0-38.69-1.48-51.84-4.39c-13.16-2.91-24.62-6.67-34.08-11.18l8.81-25.79c9,3.91,19.43,7.1,31.48,9.73
					c12.03,2.64,26.04,3.97,41.63,3.97c10.57,0,20.47-0.93,29.43-2.77c8.92-1.84,16.71-4.69,23.16-8.5
					c6.41-3.78,11.5-8.75,15.15-14.75c3.64-5.99,5.47-13.27,5.47-21.63c0-8.34-1.91-15.34-5.68-20.81
					c-3.8-5.49-9.05-10.26-15.61-14.17c-6.6-3.94-14.26-7.34-22.77-10.11c-8.51-2.75-17.61-5.5-27.07-8.15
					c-9.42-2.63-19.15-5.85-28.9-9.56c-9.78-3.72-18.93-8.49-27.2-14.18c-8.32-5.71-15.16-12.93-20.35-21.44
					c-5.2-8.52-7.84-19.19-7.84-31.7c0-10.12,1.88-19.62,5.59-28.25c3.72-8.66,9.67-16.22,17.69-22.48
					c8.01-6.25,18.38-11.23,30.81-14.81c12.42-3.57,27.56-5.39,44.99-5.39c14.75,0,28.38,1.28,40.51,3.79
					c12.12,2.53,23.22,6.08,32.97,10.58l-8.8,25.79c-9.01-3.89-18.98-6.89-30.14-9.13c-11.19-2.24-22.81-3.37-34.53-3.37
					c-23.17,0-40.1,4.05-50.32,12.03c-10.19,7.95-15.35,18.32-15.35,30.84c0,7.55,1.76,14.02,5.24,19.21
					c3.5,5.23,8.31,9.8,14.28,13.59c6,3.81,13.15,7.21,21.22,10.1c8.09,2.91,16.82,5.71,25.95,8.34
					c10.55,3.15,21.24,6.71,31.78,10.56c10.51,3.85,20.12,8.83,28.54,14.79C260.15,441.94,267.07,449.35,272.28,457.99z
					 M271.63,523.07c4.97-9.16,7.49-20.2,7.49-32.79c0-12.57-2.59-23.26-7.7-31.78c-5.13-8.52-11.96-15.84-20.29-21.73
					c-8.35-5.9-17.87-10.84-28.3-14.66c-10.52-3.84-21.19-7.39-31.73-10.53c-9.13-2.64-17.89-5.45-26-8.37
					c-8.14-2.92-15.35-6.35-21.41-10.2c-6.1-3.85-11.01-8.52-14.58-13.87c-3.59-5.36-5.42-12.01-5.42-19.77
					c0-12.84,5.3-23.48,15.74-31.64c10.4-8.13,27.54-12.24,50.93-12.24c11.79,0,23.48,1.13,34.73,3.39
					c11.01,2.21,20.89,5.16,29.36,8.78l8.55-23.74c-9.58-4.37-20.46-7.85-32.34-10.32c-12.06-2.5-25.62-3.77-40.3-3.77
					c-17.34,0-32.38,1.8-44.71,5.35c-12.31,3.55-22.56,8.47-30.47,14.64c-7.89,6.16-13.74,13.58-17.39,22.09
					c-3.65,8.51-5.51,17.88-5.51,27.86c0,12.32,2.59,22.81,7.69,31.18c5.11,8.39,11.86,15.5,20.06,21.13
					c8.2,5.65,17.28,10.39,26.98,14.08c9.72,3.7,19.42,6.91,28.82,9.54c9.47,2.65,18.59,5.4,27.11,8.16
					c8.59,2.78,16.32,6.21,22.98,10.19c6.69,4,12.04,8.87,15.91,14.47c3.89,5.63,5.87,12.82,5.87,21.37c0,8.54-1.9,15.99-5.62,22.14
					c-3.74,6.16-8.95,11.23-15.5,15.1c-6.53,3.86-14.43,6.76-23.46,8.61c-9.02,1.85-18.99,2.79-29.63,2.79
					c-15.67,0-29.75-1.34-41.85-3.99c-11.88-2.59-22.2-5.74-30.69-9.37l-8.54,23.74c9.31,4.39,20.56,8.06,33.45,10.92
					c13.08,2.9,30.45,4.37,51.62,4.37c14.67,0,28.45-1.54,40.96-4.56c12.46-3.02,23.3-7.61,32.25-13.66
					C259.61,539.95,266.65,532.25,271.63,523.07"/>
			</g>
			<g>
				<path class="st2" d="M190.37,289.83c14.68,0,28.24,1.27,40.3,3.77c11.88,2.48,22.76,5.95,32.34,10.32l-8.55,23.74
					c-8.47-3.62-18.35-6.57-29.36-8.77c-11.25-2.26-22.94-3.39-34.73-3.39c-23.39,0-40.53,4.11-50.93,12.24
					c-10.44,8.15-15.74,18.79-15.74,31.64c0,7.76,1.83,14.41,5.42,19.77c3.57,5.35,8.48,10.02,14.58,13.87
					c6.07,3.85,13.27,7.28,21.41,10.2c8.11,2.92,16.87,5.73,26,8.37c10.53,3.14,21.2,6.69,31.73,10.53
					c10.43,3.83,19.95,8.76,28.3,14.66c8.33,5.89,15.16,13.21,20.29,21.73c5.1,8.51,7.7,19.21,7.7,31.78
					c0,12.59-2.52,23.62-7.49,32.79c-4.98,9.18-12.02,16.88-20.93,22.91c-8.95,6.05-19.79,10.65-32.25,13.66
					c-12.51,3.02-26.29,4.56-40.96,4.56c-21.18,0-38.55-1.47-51.62-4.36c-12.9-2.85-24.15-6.53-33.45-10.92l8.54-23.74
					c8.49,3.63,18.81,6.78,30.69,9.37c12.11,2.65,26.18,3.99,41.85,3.99c10.64,0,20.61-0.94,29.63-2.79
					c9.04-1.85,16.93-4.75,23.46-8.61c6.55-3.87,11.76-8.95,15.5-15.1c3.73-6.15,5.62-13.6,5.62-22.14c0-8.55-1.98-15.74-5.87-21.37
					c-3.87-5.61-9.22-10.48-15.91-14.47c-6.66-3.98-14.39-7.41-22.98-10.19c-8.51-2.76-17.64-5.51-27.11-8.16
					c-9.4-2.63-19.1-5.84-28.82-9.54c-9.7-3.69-18.78-8.42-26.98-14.08c-8.2-5.63-14.95-12.74-20.06-21.13
					c-5.1-8.36-7.69-18.86-7.69-31.18c0-9.97,1.85-19.35,5.51-27.86c3.64-8.51,9.49-15.93,17.39-22.09
					c7.91-6.17,18.16-11.1,30.47-14.64C157.99,291.63,173.02,289.83,190.37,289.83z"/>
			</g>
		</g>
		<g class="st0">
			<g>
				<rect x="396.8" y="489.43" class="st3" width="194.97" height="0"/>
			</g>
			<g>
				<rect x="520.96" y="560.62" class="st4" width="39.92" height="0"/>
			</g>
			<g>
				<rect x="366.43" y="493.52" class="st3" width="183.66" height="0"/>
			</g>
			<g>
				<rect x="397.98" y="489.95" class="st3" width="196.3" height="0"/>
			</g>
			<g>
				<rect x="402.32" y="355.83" class="st1" width="178.97" height="0"/>
			</g>
			<g>
				<rect x="517.39" y="293.41" class="st4" width="38.53" height="0"/>
			</g>
			<g>
				<rect x="371.44" y="352.75" class="st1" width="170.09" height="0"/>
			</g>
			<g>
				<path class="st2" d="M429.07,418.27l134.11,143.34h-42.66l-125.96-134.8v-15.14l122.42-119.27h41.4L429.07,418.27z
					 M395.57,426.42l125.39,134.2h39.92l-133.2-142.37l128.24-124.84h-38.53L395.57,412.1V426.42"/>
			</g>
			<g>
				<polygon class="st2" points="427.68,418.25 560.88,560.62 520.96,560.62 395.57,426.42 395.57,412.1 517.39,293.41 
					555.92,293.41 				"/>
			</g>
			<g>
				<rect x="370.32" y="352.04" class="st1" width="170.91" height="0"/>
			</g>
			<g>
				<rect x="516.99" y="292.41" class="st4" width="41.4" height="0"/>
			</g>
		</g>
		<g class="st0">
			<g>
				<rect x="338.73" y="560.62" class="st4" width="32.75" height="0"/>
			</g>
			<g>
				<rect x="338.73" y="293.41" class="st2" width="32.75" height="267.21"/>
			</g>
			<g>
				<rect x="338.73" y="293.41" class="st4" width="32.75" height="0"/>
			</g>
			<g>
				<path class="st2" d="M337.73,561.62V292.41h34.75v269.21H337.73z M338.73,293.41v267.21h32.75V293.41H338.73"/>
			</g>
			<g>
				<rect x="337.73" y="292.41" class="st4" width="34.75" height="0"/>
			</g>
		</g>
	</g>
</g>
<g>
	<g>
		<g class="st0">
			<g>
				<polygon class="st2" points="563.25,570.56 563.25,582.56 93,582.56 93,576.56 93,570.56 				"/>
			</g>
			<g>
				<rect x="93" y="570.56" class="st4" width="470.25" height="0"/>
			</g>
		</g>
	</g>
</g>
<g>
	<g>
		<g class="st0">
			<g>
				<polygon class="st2" points="558.25,269.25 558.25,281.26 87.99,281.26 87.99,275.26 87.99,269.25 				"/>
			</g>
			<g>
				<rect x="87.99" y="269.25" class="st4" width="470.26" height="0"/>
			</g>
		</g>
	</g>
</g>
</svg>
